<?xml version="1.0" encoding="utf-8"?>
<!-- Generator: Adobe Illustrator 16.0.0, SVG Export Plug-In . SVG Version: 6.00 Build 0)  -->
<!DOCTYPE svg PUBLIC "-//W3C//DTD SVG 1.1//EN" "http://www.w3.org/Graphics/SVG/1.1/DTD/svg11.dtd">
<svg version="1.1" id="Layer_1" xmlns="http://www.w3.org/2000/svg" xmlns:xlink="http://www.w3.org/1999/xlink" x="0px" y="0px"
	 width="524.5px" height="200px" viewBox="0 0 524.5 200" enable-background="new 0 0 524.5 200" xml:space="preserve">
<g>
	<path fill-rule="evenodd" clip-rule="evenodd" fill="#68AFEA" d="M326.441,145.318c4.678-2.53,4.369-8.804-0.837-10.716
		c-0.033-0.541-0.076-1.105-0.096-1.667c-0.076-2.273-0.156-4.544-0.213-6.821c-0.079-3.316-0.152-6.626-0.202-9.942
		c-0.06-4.08-0.116-8.166-0.13-12.25c-0.013-6.095-0.01-12.189,0.027-18.281c0.026-3.419,0.096-6.831,0.192-10.24
		c0.1-3.243,0.202-6.487,0.392-9.724c0.365-6.307,0.843-12.611,1.772-18.862c1.009-6.762,2.427-13.428,4.96-19.812
		c1.759-4.415,4-8.541,7.041-12.213c3.817-4.607,8.511-8.013,13.995-10.34c5.763-2.447,11.812-3.668,18.022-4.1
		c3.07-0.209,6.151-0.355,9.225-0.325c6.606,0.066,13.159,0.72,19.53,2.619c6.058,1.813,11.512,4.704,16.04,9.182
		c3.426,3.379,6.012,7.343,8,11.712c2.348,5.145,3.821,10.556,4.863,16.097c0.87,4.598,1.484,9.239,1.843,13.909
		c0.216,2.935,0.448,5.873,0.577,8.804c0.183,4.219,0.329,8.428,0.402,12.645c0.106,6.36,0.139,12.721,0.202,19.081
		c0,0.166-0.02,0.332-0.033,0.524c-2.522,1.052-4.073,2.852-3.95,5.673c0.106,2.543,1.587,4.18,3.983,5.143c0,0.338,0,0.697,0,1.062
		c-0.033,5.963-0.043,11.918-0.096,17.88c-0.023,2.745-0.08,5.491-0.193,8.229c-0.159,3.777-0.335,7.552-0.598,11.32
		c-0.494,7.146-1.287,14.254-2.931,21.238c-1.172,4.967-2.769,9.78-5.165,14.308c-4.405,8.316-11.098,13.946-19.935,17.083
		c-4.956,1.756-10.079,2.659-15.294,3.12c-4.08,0.365-8.159,0.412-12.242,0.279c-5.598-0.166-11.138-0.833-16.549-2.36
		c-5.938-1.68-11.37-4.322-16.001-8.472c-3.322-2.987-5.975-6.49-8.103-10.407c-3.005-5.517-4.834-11.445-6.172-17.544
		c-1.019-4.645-1.666-9.345-2.204-14.065C326.501,146.493,326.481,145.892,326.441,145.318z M403.348,100.094
		c0.029,0,0.06,0,0.089,0c-0.089-8.571-0.143-17.136-0.278-25.711c-0.066-4.112-0.216-8.223-0.429-12.335
		c-0.192-3.672-0.487-7.333-0.803-10.999c-0.332-3.864-0.956-7.698-1.883-11.469c-0.836-3.426-1.979-6.742-3.874-9.75
		c-2.237-3.545-5.328-5.982-9.381-7.101c-4.641-1.285-9.321-1.315-14.009-0.246c-4.73,1.079-8.382,3.721-11.051,7.754
		c-1.757,2.652-2.955,5.547-3.871,8.571c-2.23,7.413-2.997,15.071-3.575,22.747c-0.202,2.698-0.325,5.404-0.435,8.112
		c-0.156,3.608-0.279,7.218-0.375,10.829c-0.061,2.145-0.08,4.285-0.066,6.43c0.05,11.583,0.103,23.172,0.183,34.754
		c0.02,2.543,0.112,5.082,0.212,7.621c0.106,2.706,0.216,5.415,0.398,8.117c0.223,3.2,0.495,6.396,0.81,9.587
		c0.402,4,1.069,7.95,2.062,11.845c0.894,3.516,2.089,6.918,3.987,10.035c2.672,4.395,6.474,7.236,11.513,8.389
		c3.661,0.833,7.35,0.916,11.07,0.432c5.75-0.764,10.169-3.513,13.06-8.602c1.57-2.762,2.569-5.736,3.337-8.794
		c1.4-5.6,1.988-11.323,2.42-17.06c0.282-3.761,0.444-7.545,0.614-11.319c0.109-2.603,0.152-5.212,0.199-7.824
		c0.043-2.474,0.069-4.953,0.072-7.433C403.354,111.152,403.348,105.622,403.348,100.094z"/>
	<path fill-rule="evenodd" clip-rule="evenodd" fill="#68AFEA" d="M3.826,3.36c0.438,0,0.799,0,1.162,0
		c14.503,0,29.008-0.017,43.512,0.01c6.468,0.007,12.905,0.511,19.244,1.875c7.344,1.583,14.218,4.252,20.178,8.973
		c4.694,3.725,8.292,8.329,11.014,13.644c2.816,5.494,4.587,11.336,5.855,17.352c0.96,4.515,1.606,9.083,2.066,13.677
		c0.497,4.956,0.809,9.929,1.022,14.908c0.292,6.858,0.383,13.717,0.364,20.572c0,0.072-0.02,0.136-0.039,0.269
		c-2.284,1.009-3.799,2.679-3.812,5.328c-0.013,2.659,1.469,4.346,3.779,5.381c0.026,0.093,0.065,0.153,0.058,0.219
		c-0.006,3.914-0.02,7.835-0.032,11.752c-0.007,1.407,0.007,2.812-0.032,4.22c-0.117,3.91-0.188,7.83-0.396,11.734
		c-0.37,6.845-0.87,13.684-1.973,20.459c-1.042,6.351-2.534,12.585-5.165,18.504c-4.359,9.829-11.607,16.531-21.687,20.21
		c-4.675,1.699-9.508,2.726-14.438,3.343c-4.921,0.607-9.863,0.846-14.822,0.843c-14.903-0.013-29.806-0.007-44.713-0.007
		c-0.363,0-0.724,0-1.146,0C3.826,132.192,3.826,67.864,3.826,3.36z M30.709,173.82c0.374,0.017,0.695,0.043,1.022,0.043
		c6.333,0.004,12.661,0.007,18.991,0c2.683-0.003,5.342-0.278,7.971-0.836c6.832-1.447,11.918-5.202,15.149-11.437
		c1.727-3.326,2.848-6.852,3.672-10.486c1.541-6.839,2.138-13.8,2.544-20.774c0.182-3.037,0.314-6.071,0.402-9.116
		c0.109-3.847,0.208-7.694,0.208-11.542c0.006-7.897-0.042-15.798-0.104-23.702c-0.026-3.777-0.088-7.559-0.221-11.34
		c-0.143-4.073-0.356-8.149-0.6-12.223c-0.273-4.472-0.809-8.92-1.671-13.322c-0.785-3.984-1.859-7.875-3.689-11.526
		c-2.825-5.646-7.205-9.454-13.281-11.303c-3.916-1.192-7.932-1.624-11.986-1.67c-5.794-0.057-11.588-0.023-17.382-0.023
		c-0.324,0-0.649,0.037-1.026,0.06C30.709,74.39,30.709,124.072,30.709,173.82z"/>
	<path fill-rule="evenodd" clip-rule="evenodd" fill="#68AFEA" d="M449.723,72.428c-0.213,0-0.318-0.013-0.408,0
		c-0.299,0.05-0.591,0.113-1.02,0.196c-0.069,2.549-0.02,5.119-0.033,7.685c-0.007,2.579,0,5.162,0,7.741c0,2.58,0,5.155,0,7.738
		c0,2.576,0,5.155,0,7.731c0,2.583,0,5.165,0,7.741c0,2.583,0,5.159,0,7.741c0,2.576,0,5.156,0,7.738c0,2.609,0,5.226,0,7.838
		c0,2.579,0,5.155,0,7.734c0,2.583,0,5.162,0,7.742c0,2.579,0,5.155,0,7.737c0,2.58,0,5.159,0,7.735c0,2.582,0,5.162,0,7.741
		c0,2.576,0,5.155,0,7.738c0,2.575,0,5.158,0,7.741c0,2.569,0,5.142,0,7.688c-0.81,0.226-22.238,0.282-23.522,0.076
		c-0.021-0.272-0.054-0.564-0.054-0.856c-0.006-4.22-0.013-8.438,0.007-12.661c0-0.386,0.063-0.82,0.253-1.142
		c2.861-4.937,4.717-10.262,6.062-15.782c1.165-4.81,1.995-9.693,2.463-14.623c0.411-4.392,0.76-8.79,1.025-13.192
		c0.22-3.704,0.346-7.419,0.402-11.127c0.112-6.968,0.149-13.93,0.219-20.897c0.003-0.226,0-0.461,0-0.74
		c2.616-1.006,4.253-2.802,4.166-5.656c-0.069-2.666-1.633-4.365-4.176-5.288c0-1.634,0.003-3.271-0.004-4.903
		c-0.017-4.724,0-9.447-0.079-14.168c-0.073-4.149-0.199-8.296-0.412-12.442c-0.183-3.635-0.448-7.273-0.783-10.898
		c-0.688-7.539-1.772-15.012-3.953-22.292c-1.245-4.143-2.836-8.143-4.993-11.911c-0.156-0.276-0.269-0.627-0.269-0.939
		c0.006-4.352,0.039-8.704,0.072-13.06c0-0.159,0.057-0.319,0.097-0.524c9.269,0,18.504,0,27.885,0
		c14.526,41.419,29.07,82.881,43.64,124.426c0.475-0.086,0.894-0.159,1.447-0.259c0.004-2.944,0.007-5.879,0.007-8.811
		c0.004-2.944,0-5.896,0-8.844c0-2.984,0-5.962,0-8.946c0-2.944,0-5.898,0-8.843c0-2.945,0-5.893,0-8.844c0-2.948,0-5.896,0-8.844
		c0-2.978,0-5.962,0-8.939c0-2.951,0-5.899,0-8.847s0-5.892,0-8.847c0-2.945,0-5.889,0-8.84c0-2.948,0-5.896,0-8.847
		c0-2.978,0-5.962,0-8.94c0-2.944,0-5.892,0-8.847c0-2.938,0-5.879,0-8.804c0.837-0.216,22.371-0.249,23.474-0.05
		c0,64.325,0,128.659,0,193.067c-9.199,0-18.354,0-27.643,0C478.985,155.213,464.358,113.844,449.723,72.428z"/>
	<path fill-rule="evenodd" clip-rule="evenodd" fill="#68AFEA" d="M245.893,48.467c2.508-0.989,4.014-2.755,3.994-5.48
		c-0.016-2.533-1.417-4.243-3.805-5.282c0.156-1.281,0.273-2.576,0.46-3.854c0.63-4.319,1.648-8.528,3.361-12.565
		c3.613-8.495,9.78-14.328,18.354-17.65c4.21-1.626,8.582-2.56,13.057-3.067c3.599-0.405,7.203-0.611,10.818-0.561
		c6.049,0.09,12.024,0.694,17.804,2.616c5.245,1.747,9.862,4.472,13.514,8.688c2.941,3.406,4.817,7.373,6.165,11.629
		c0.342,1.065,0.269,1.958-0.18,2.971c-1.377,3.13-2.383,6.397-3.11,9.736c-0.693,3.23-1.251,6.493-1.869,9.743
		c-0.033,0.159-0.089,0.315-0.152,0.554c-4.519,0.631-9.036,1.262-13.641,1.899c-0.066-0.694-0.146-1.285-0.179-1.879
		c-0.276-4.239-0.578-8.479-1.653-12.608c-0.365-1.417-0.854-2.828-1.478-4.153c-1.723-3.678-4.737-5.79-8.638-6.712
		c-3.021-0.714-6.088-0.84-9.177-0.687c-2.047,0.1-4.062,0.365-6.047,0.896c-5.159,1.375-8.467,4.645-10.063,9.704
		c-0.892,2.832-1.303,5.736-1.424,8.684c-0.108,2.543-0.204,5.092-0.12,7.628c0.161,4.707,0.922,9.312,2.718,13.703
		c2.304,5.65,6.138,10.072,10.895,13.776c3.685,2.872,7.722,5.192,11.758,7.496c4.509,2.576,8.974,5.212,13.209,8.232
		c4.037,2.889,7.808,6.092,11.095,9.84c0.354,0.408,0.501,0.813,0.498,1.348c-0.023,3.954-0.023,7.907-0.014,11.861
		c0.007,2.51,0.01,5.022,0.08,7.532c0.109,3.977,0.275,7.957,0.414,11.934c0,0.066-0.02,0.133-0.033,0.256
		c-2.586,1.032-4.172,2.904-3.979,5.796c0.199,2.951,2.074,4.585,4.847,5.262c0.249,2.095,0.465,4.156,0.743,6.208
		c1.069,8.047,2.612,15.987,5.813,23.489c0.638,1.484,0.475,2.58-0.235,3.897c-4.176,7.774-10.36,13.295-18.507,16.628
		c-4.402,1.803-8.986,2.835-13.684,3.439c-4.498,0.584-9.02,0.667-13.531,0.524c-5.637-0.187-11.207-0.899-16.558-2.809
		c-4.481-1.597-8.464-3.99-11.76-7.456c-3.189-3.346-5.438-7.276-7.124-11.546c-1.915-4.847-3.147-9.882-3.951-15.011
		c-0.604-3.795-1.064-7.615-1.473-11.439c-0.364-3.39-0.559-6.789-0.834-10.188c-0.061-0.767-0.119-1.53-0.191-2.42
		c7.838-1.573,15.623-3.137,23.467-4.71c0.078,0.71,0.17,1.301,0.204,1.892c0.108,1.942,0.153,3.881,0.296,5.819
		c0.52,6.932,1.084,13.866,2.823,20.635c0.79,3.088,1.843,6.085,3.655,8.754c1.975,2.922,4.65,4.89,8.079,5.736
		c5.043,1.242,10.096,1.122,15.092-0.235c4.893-1.325,8.196-4.498,10.088-9.166c1.105-2.715,1.689-5.56,2.052-8.455
		c0.688-5.424,0.767-10.875,0.567-16.332c-0.172-4.697-0.847-9.321-2.268-13.819c-1.889-5.969-5.178-11.055-9.726-15.347
		c-3.765-3.56-8.037-6.44-12.399-9.199c-3.794-2.394-7.635-4.714-11.326-7.253c-6.135-4.217-11.576-9.199-16.003-15.234
		c-4.875-6.643-7.97-14.049-9.554-22.112c-0.682-3.482-1.129-6.991-1.233-10.542C245.887,49.168,245.893,48.833,245.893,48.467z"/>
	<path fill-rule="evenodd" clip-rule="evenodd" fill="#68AFEA" d="M239.834,136.332c-0.295,0.103-0.571,0.206-0.928,0.332
		c0,0.338-0.052,0.677,0.009,0.992c0.302,1.617,0.01,3.19-0.308,4.768c-1.856,9.212-3.705,18.434-5.554,27.646
		c-1.732,8.654-3.468,17.312-5.204,25.963c-0.032,0.162-0.084,0.322-0.143,0.541c-9.342,0-18.672,0-28.126,0
		c-11.841-59.209-23.678-118.421-35.526-177.644c2.284-1.507,3.511-3.496,2.911-6.234c-0.584-2.629-2.411-3.983-5.048-4.471
		c-0.311-1.554-0.623-3.124-0.934-4.691c0.755-0.206,27.833-0.266,29.215-0.056c0.279,1.567,0.578,3.17,0.86,4.773
		c1.184,6.749,2.362,13.498,3.54,20.25c1.232,7.11,2.459,14.234,3.698,21.345c1.106,6.357,2.232,12.711,3.341,19.064
		c1.168,6.719,2.316,13.444,3.487,20.163c1.305,7.479,2.627,14.948,3.929,22.428c1.045,5.988,2.07,11.99,3.111,17.985
		c0.704,4.054,1.417,8.101,2.131,12.153c0.23,1.285,0.236,1.285,1.674,1.086c8.243-46.386,16.493-92.813,24.752-139.302
		c7.092,0,14.15,0,21.336,0c-0.211,0.176-0.341,0.305-0.491,0.395c-7.373,4.342-12.314,10.679-15.289,18.633
		c-1.697,4.544-2.622,9.258-3.154,14.062c-0.029,0.232-0.048,0.465-0.081,0.697c-0.013,0.096-0.045,0.189-0.074,0.315
		c-2.605,0.913-4.286,2.639-4.305,5.514c-0.01,2.686,1.496,4.412,4.029,5.428c0.045,0.515,0.124,1.069,0.152,1.63
		c0.497,10.222,2.962,19.882,8.166,28.762c0.35,0.594,0.441,1.118,0.301,1.779c-1.183,5.663-2.345,11.326-3.506,16.993
		c-1.777,8.681-3.549,17.365-5.327,26.042c-0.804,3.931-1.608,7.864-2.417,11.795C240.002,135.76,239.911,136.045,239.834,136.332z"
		/>
	<path fill-rule="evenodd" clip-rule="evenodd" fill="#68AFEA" d="M111.425,105.482c2.622-0.976,4.175-2.729,4.182-5.435
		c0.013-2.795-1.56-4.594-4.236-5.521c-0.017-0.288-0.039-0.58-0.042-0.873c-0.036-4.186-0.006-8.372-0.114-12.562
		c-0.097-3.874-0.299-7.748-0.513-11.622c-0.181-3.17-0.389-6.344-0.687-9.503c-0.844-8.98-2.226-17.863-5.262-26.395
		c-0.886-2.483-2.047-4.874-3.063-7.31c-0.156-0.358-0.295-0.757-0.295-1.135c0.007-7.034,0.036-14.068,0.055-21.1
		c0-0.166,0.029-0.329,0.042-0.475c0.743-0.232,54.685-0.315,56.346-0.09c0.182,0.87,0.376,1.776,0.558,2.686
		c0.179,0.883,0.338,1.766,0.513,2.692c-2.242,1.474-3.484,3.453-2.891,6.194c0.567,2.639,2.401,3.98,5.042,4.485
		c0.359,1.816,0.723,3.632,1.112,5.574c-5.68,0-11.234,0-16.788,0c-5.557,0-11.117,0-16.659,0
		c-0.217,0.76-0.292,57.028-0.077,58.698c2.209,0.083,4.441,0.026,6.669,0.033c2.245,0.014,4.49,0.003,6.731,0.003
		c2.249,0,4.49,0,6.731,0c2.248,0,4.49,0,6.735,0c2.245,0,4.49,0,6.734,0c2.235,0,4.471,0,6.825,0
		c-0.655,7.394-1.304,14.667-1.956,22.029c-12.839,0-25.621,0-38.38,0c-0.228,0.804-0.292,68.053-0.078,69.483
		c2.005,0.169,4.04,0.05,6.067,0.069c2.076,0.021,4.152,0.007,6.229,0.007c2.044,0,4.087,0,6.131,0c2.043,0,4.087,0,6.131,0
		c2.04,0,4.087,0,6.125,0c2.083,0,4.159,0,6.235,0c2.043,0,4.087,0,6.128,0c2.04,0,4.084,0,6.102,0
		c0.221,0.783,0.26,20.015,0.056,21.137c-25.427,0-50.86,0-76.349,0c-0.019-0.362-0.048-0.654-0.048-0.953
		c-0.01-6.062-0.01-12.127,0.003-18.185c0.003-0.358,0.058-0.751,0.227-1.053c3.023-5.554,4.84-11.522,6.145-17.667
		c0.954-4.521,1.622-9.083,2.031-13.684c0.325-3.694,0.604-7.396,0.817-11.101c0.201-3.503,0.337-7.015,0.415-10.523
		c0.11-5.458,0.149-10.915,0.228-16.369C111.338,106.518,111.389,106.023,111.425,105.482z"/>
</g>
</svg>
